<?xml version="1.0" encoding="UTF-8" standalone="no"?>
<svg
   width="388"
   height="60"
   version="1.1"
   viewBox="0 0 102.66 15.875"
   id="svg216"
   xmlns="http://www.w3.org/2000/svg"
   xmlns:svg="http://www.w3.org/2000/svg">
  <defs
     id="defs220" />
  <g
     transform="translate(0 -281.12)"
     id="g214">
    <path
       d="m-202.26 140.96c-4.5879-0.61473-7.4499-5.1035-6.5091-10.209 0.39788-2.1593 1.005-3.3728 2.3251-4.6466 1.5497-1.4955 3.1813-2.1054 5.6326-2.1054 2.6882 0 4.3589 0.69211 5.9545 2.4668 1.5097 1.6792 2.0971 3.4273 2.0745 6.1739-0.0469 5.6879-3.8971 9.0681-9.4775 8.3204zm3.5875-2.9625c1.7341-0.87446 2.6378-2.7546 2.6299-5.4714-9e-3 -3.1971-1.2725-5.1863-3.7104-5.8428-3.1658-0.85245-5.8956 1.8889-5.8705 5.8954 0.0176 2.8155 0.96479 4.6703 2.8137 5.51 1.4467 0.65702 2.7087 0.62921 4.1373-0.0912zm17.776 2.9761c-2.7496-0.58063-5.4801-2.9493-6.1948-5.3738-0.55424-1.8803-0.40993-5.1259 0.29949-6.7357 0.82405-1.8699 3.0276-3.8821 4.8411-4.4206 1.5609-0.46354 4.6404-0.52635 6.0886-0.12418 0.97981 0.27211 0.99218 0.29227 0.99218 1.6169 0 1.2722-0.0307 1.3313-0.59531 1.1471-0.32742-0.10682-1.5011-0.2516-2.6081-0.32175-2.1444-0.13588-3.1292 0.16324-4.4285 1.3451-1.9605 1.7833-2.2997 5.7388-0.69947 8.157 1.2534 1.894 4.1817 2.7324 6.9423 1.9877l1.3891-0.3747v1.2907c0 1.1416-0.0783 1.3205-0.67782 1.5484-1.0086 0.38346-4.0579 0.53048-5.3487 0.25788zm68.997-0.04c-4.097-0.66151-6.5598-4.2072-6.2954-9.0635 0.27379-5.0273 3.197-7.8846 8.0527-7.8711 2.7415 8e-3 4.6256 0.8186 6.0934 2.6227 1.5024 1.8468 2.0366 3.7013 1.887 6.5516-0.2882 5.4911-4.2479 8.6467-9.7377 7.7603zm4.2296-3.0876c1.6565-1.2262 2.5194-3.4633 2.3174-6.0078-0.25553-3.2188-2.1316-5.265-4.8272-5.265-3.4794 0-5.6605 3.7561-4.6433 7.9962 0.38386 1.6001 1.8128 3.3801 3.0078 3.7468 1.1796 0.36196 3.3543 0.11524 4.1453-0.47026zm-118.79-5.2063v-8.3344l3.7703 6e-3c4.1698 6e-3 5.2358 0.28865 6.5978 1.7468 0.93089 0.99663 1.2736 1.9564 1.2736 3.5668 0 1.6613-0.77421 3.223-1.9873 4.0088-0.53901 0.34912-0.91771 0.81165-0.91935 1.1228-2e-3 0.29104 0.83059 1.7793 1.8492 3.3073l1.852 2.7781-1.4921 0.0804c-0.82066 0.0443-1.6293 0.0278-1.7969-0.0365s-1.1205-1.44-2.1174-3.057c-1.7874-2.8992-1.8264-2.94-2.8054-2.94-0.66118 0-1.0464 0.13978-1.1534 0.41852-0.0883 0.23018-0.1606 1.5994-0.1606 3.0427v2.6242h-2.9104zm7.6435-0.76715c1.445-1.3077 1.275-3.9631-0.31575-4.933-1.1894-0.7252-3.7565-0.72875-4.1435-6e-3 -0.36291 0.67811-0.35176 4.4046 0.0152 5.0904 0.25702 0.48025 0.48991 0.52889 2.0972 0.43807 1.2775-0.0722 1.9662-0.24521 2.3468-0.58963zm50.036 0.76715v-8.3344h2.9104v16.669h-2.9104zm7.2945 4.2418c-1.5381-2.2509-2.7965-4.1508-2.7965-4.222 0-0.18394 4.7674-7.6214 5.1518-8.0372 0.21251-0.22985 0.85721-0.31789 1.9375-0.26459l1.619 0.0799-2.5021 3.8143c-1.3762 2.0979-2.5021 4.0413-2.5021 4.3188 0 0.38701 3.5829 5.779 5.3642 8.0727 0.20005 0.2576-0.15577 0.33073-1.6092 0.33073h-1.8661zm12.285-4.2418v-8.3344h3.6522c3.411 0 3.7442 0.0458 5.0448 0.69398 2.3264 1.1593 3.3871 3.5592 2.7003 6.1098-0.65129 2.4187-2.6587 3.7888-5.8411 3.9866-1.0914 0.0678-2.1332 0.24219-2.3151 0.38745-0.22443 0.17922-0.33073 1.104-0.33073 2.8775v2.6134h-2.9104zm6.7847-0.0357c1.1053-0.5245 1.682-1.5555 1.682-3.007 0-2.3242-1.2927-3.3102-4.101-3.1284l-1.3229 0.0857-0.0756 2.8934c-0.0416 1.5914-0.0156 3.0499 0.0578 3.2411 0.19161 0.49933 2.6454 0.44397 3.7597-0.0848zm9.8841 0.0357v-8.3344h2.9104v6.728c0 5.7636 0.0596 6.7876 0.41578 7.1438 0.32725 0.32725 1.0314 0.41578 3.3073 0.41578h2.8915v2.3812h-9.525zm39.626 1.1245-0.0704-7.2099-4.101-0.1546v-2.0944h11.642v2.1167h-1.9751c-1.6819 0-2.0157 0.076-2.249 0.51178-0.16831 0.31449-0.27389 3.1192-0.27389 7.276v6.7643h-2.9019zm-100.01-36.248c1.3028-2.5102 5.1387-10.041 8.5242-16.735s6.4942-12.523 6.9081-12.954l0.75266-0.78276 0.83618 0.78276c0.81466 0.76261 2.5558 4.1159 3.0911 5.9533 0.1466 0.50318 1.5364 4.6058 3.0885 9.117 1.5521 4.5111 3.3092 9.6308 3.9046 11.377 1.4469 4.2432 2.3656 5.5119 5.401 7.4589 0.38302 0.24568-3.4076 0.3186-17.192 0.33073l-17.683 0.0156zm46.359 4.3949c-0.3638-0.0534-1.5544-0.22646-2.6458-0.38457-4.6834-0.67849-9.4266-2.4041-11.176-4.066-1.1705-1.1118-0.8719-0.32522-7.3356-19.325-3.0242-8.8896-3.504-9.9986-5.3198-12.296l-1.1154-1.4111 0.95513-1.8779c5.5152-10.843 10.883-20.777 11.558-21.391 0.44041-0.40018 1.0874-0.7276 1.4377-0.7276 0.7951 0 2.102 1.0745 2.4876 2.0452 0.16014 0.40313 1.9723 5.2573 4.027 10.787 8.4998 22.876 7.7939 21.312 11.291 25.009 4.6637 4.9309 10.486 7.7528 17.206 8.339 1.1934 0.1041 2.2719 0.3229 2.3967 0.48622 0.12475 0.16332 0.77681 1.6662 1.449 3.3397 0.67223 1.6735 2.0009 4.9454 2.9526 7.2708 0.95167 2.3255 1.7303 4.2602 1.7303 4.2995 0 0.10867-29.141 0.0133-29.898-0.0978zm19.579-18.928c-2.6752-0.57308-5.0219-1.394-7.276-2.5453-1.9592-1.0006-2.8548-1.6877-5.0527-3.876-2.7703-2.7581-3.6447-4.1553-5.1016-8.1517l-0.5553-1.5232 2.5464-3.3716c2.9968-3.968 3.6859-4.7465 4.6444-5.2473 1.0999-0.57462 1.7078-0.45434 2.8307 0.56011 1.0363 0.93626 1.084 1.0333 4.1534 8.4593 0.92234 2.2315 6.169 15.111 6.3863 15.677 0.15016 0.39115-0.80536 0.3982-2.5755 0.019z"
       fill="none"
       id="path210" />
    <path
       transform="matrix(.26458 0 0 .26458 0 281.12)"
       d="m84.912 1.9922-2.7188 0.011719v5.0977h-4.418v-5.0977h-3.0586v5.0977h-4.418v-5.0977h-3.0586v5.0977h-4.418v-5.0977h-2.7188v5.0977h-4.6738l-3.2715 3.5312-3.2695 3.5332v4.1504h-5.0977v2.7188h5.0977v4.418h-5.0977v3.0586h5.0977v4.418h-5.0977v3.0586h5.0977v4.418h-5.0977l-0.007813 2.7188h5.0879l0.09375 5.5215 5.6152 5.6172 5.5234 0.09375v5.0879l2.7188-0.009765v-5.0977h4.418v5.0977h3.0586v-5.0977h4.418v5.0977h3.0586v-5.0977h4.418v5.0977l2.7188 0.013672v-5.0801l4.2422-0.20312 3.4863-4.1641c3.1445-3.757 3.4863-4.2992 3.4863-5.5234v-1.3574h5.0957v-2.7188h-5.0977v-4.5879l5.0977 0.10352 0.00195-2.9922h-5.0977v-4.418h5.0977l-0.00195-2.9902-5.0977 0.10156v-4.5879h5.0977l0.00976-2.7188h-5.0898l-0.09375-5.5215-5.6152-5.6152-5.5215-0.09375v-5.0898zm233.43 4.207c-4.9568-0.011339-6.3841 0.29297-10.521 2.2422-8.1275 3.8293-12.062 10.919-12.062 21.738 0 12.522 5.3468 20.33 15.967 23.316 8.7699 2.466 19.771-0.86698 24.539-7.4316 3.6832-5.0715 4.8861-9.7448 4.5195-17.551-0.23687-5.0461-0.69399-7.3341-1.9688-9.8086-4.5252-8.7843-10.581-12.481-20.473-12.506zm-98.973 0.31055c-3.567-0.04611-6.4553 0.15968-7.1152 0.70703-0.94318 0.7827-1.0977 4.0673-1.0977 23.287 0 12.308 0.21379 22.593 0.47657 22.855 0.26286 0.26306 2.522 0.47656 5.0195 0.47656h4.5391v-7.0234c0-4.509 0.30925-7.3366 0.86133-7.8887 0.47324-0.47316 2.8115-0.8757 5.1973-0.89062 7.1141-0.052157 13.41-3.2139 15.871-7.9727 1.5831-3.0612 2.0892-9.1713 1.0273-12.389-1.2158-3.6841-4.7871-7.5414-8.5039-9.1855-2.5059-1.1085-10.33-1.8969-16.275-1.9766zm-27.953 0.03125c-2.3887 0.06085-4.8664 0.36895-5.5234 0.87695-2.021 1.5614-14.981 22.328-14.672 23.51 0.16286 0.62222 3.5738 6.0333 7.5801 12.023l7.2832 10.891h6.1191c4.9051 0 6.0047-0.18942 5.5449-0.95508-0.31502-0.52536-3.882-5.6495-7.9238-11.387-4.0419-5.737-7.3496-10.775-7.3496-11.197 0-0.42157 3.2215-5.6617 7.1582-11.645 3.9367-5.9829 6.9833-11.16 6.7695-11.506-0.29885-0.48306-2.5976-0.6721-4.9863-0.61133zm-55.951 0.082031c-1.0702-0.0037796-2.3428 0.021747-3.8926 0.076172-6.4193 0.2177-8.0626 0.5306-11.158 2.1328-4.3366 2.2448-8.5166 6.6747-10.588 11.223-1.1884 2.6092-1.514 4.7647-1.5332 10.127-0.01965 5.8802 0.23618 7.3586 1.8574 10.816 3.0724 6.5515 8.6758 11.174 15.496 12.781 6.5156 1.535 16.816 0.34032 18.123-2.1016 0.76396-1.4267 0.97572-7.366 0.28907-8.0527-0.22927-0.22904-1.5983 0.083003-3.0449 0.69336-1.4465 0.61047-4.7278 1.1249-7.291 1.1445-9.6201 0.069543-15.057-5.3839-15.057-15.105 0-5.1403 2.0856-9.5809 5.9414-12.648 3.4259-2.7255 9.9738-3.4024 15.311-1.584 1.9193 0.65397 3.6756 0.88893 4.0254 0.53906 0.34156-0.34129 0.52097-2.1989 0.39844-4.127-0.20277-3.1911-0.44847-3.6228-2.7324-4.8008-1.5498-0.7974-2.934-1.0999-6.1445-1.1133zm29.57 0.0078125v0.0019531c-0.53975-0.011339-1.1535 0.0015185-1.8516 0.035156l-4.0078 0.21094-0.18946 23.514-0.1914 23.514 4.8496-0.21094 4.8516-0.21484 0.18945-22.498c0.13837-16.417-0.04072-22.773-0.6543-23.514-0.44007-0.53004-1.3769-0.79839-2.9961-0.83789zm97.787 0.0039062 0.00195 0.0019532c-0.5111-0.015118-1.0511-0.0030192-1.6016 0.023437l-3.8223 0.21875-0.1914 23.496-0.1875 23.496 13.812-0.19336 13.809-0.19726 0.22461-3.0977c0.34624-4.815-0.27101-5.1484-9.6309-5.1484h-8.1582v-18.553c0-15.146-0.18696-18.707-1.0176-19.396-0.43966-0.36472-1.7048-0.60628-3.2383-0.65039zm99.971 0.0058594c-6.1114 0.022677-8.8922 0.24144-9.4434 0.69922-0.65769 0.54565-0.94455 1.8901-0.80664 3.7754l0.21289 2.9297 4.9902 0.2168c2.7439 0.1183 5.4048 0.56167 5.9141 0.98438 0.71385 0.59263 0.92773 5.1057 0.92773 19.713v18.945l4.8379-0.21289 4.8398-0.21289 0.35742-19.355 0.35938-19.361 5.5918-0.20703 5.5938-0.21289-0.21484-3.7344-0.2168-3.7305-15.682-0.19531c-2.8184-0.034016-5.2265-0.050779-7.2637-0.039062l0.00195-0.0019531zm-359.92 0.23633s-0.0599 3.923-0.10938 7.8008h15.721c4.0785 0 7.3613 3.2848 7.3613 7.3633 0 0.82362-0.13941 1.6113-0.38672 2.3496-0.055649 0.17623-0.11987 0.34832-0.18945 0.51953-0.37329 0.91852-0.93161 1.7669-1.6953 2.4844-0.063442 0.059603-0.15366 0.11236-0.22656 0.16992-1.2959 1.141-2.993 1.8379-4.8633 1.8379h-0.95898c-0.49062 0.050716-0.97447 0.087176-1.4297 0.09375v0.001953h-0.027344c-0.056076 7.56e-4 -0.10918 0-0.16406 0h-13.213l-0.0078124 0.89258-0.30469 23.34 4.9609-0.041016 4.8535-0.21289 0.35547-7.8867c0.35736-7.8594 0.36662-7.8875 2.2285-8.1035 1.6789-0.19502 2.3939 0.62512 7.0391 8.0664l5.1699 8.2832h5.7305c4.3793 0 5.6054-0.21145 5.2129-0.89648-0.28263-0.49293-2.7196-4.3109-5.418-8.4844-2.6984-4.1733-4.9062-7.9394-4.9062-8.3672 0-0.42796 1.1068-1.4612 2.459-2.2969 3.3434-2.0664 5.4277-6.5797 5.4277-11.752 0-5.1223-1.221-8.1063-4.4922-10.979-3.893-3.418-6.8636-4.1003-18.092-4.1445l-10.035-0.039062zm69.51 2.1973 18.498 10.725-0.042968 21.387-18.539 10.654-18.5-10.727 0.042969-21.385 18.541-10.654zm-0.003906 2.3594-16.496 9.4785-0.039062 19.025 16.459 9.543 16.494-9.4785 0.039063-19.027-16.457-9.541zm153.84 3.0664c5.6268-0.034016 8.5981 2.5236 8.5801 7.4141-0.01512 3.8995-1.3066 6.2239-4.2988 7.7246-3.0048 1.5074-7.383 1.6393-8.5312 0.25586-0.54051-0.65155-0.76052-3.4738-0.62695-8.0664l0.20703-7.0645 3.5098-0.22461c0.39879-0.022677 0.78502-0.032637 1.1602-0.039062zm92.623 0.63086c2.1242 0.10318 4.2107 0.65543 5.6523 1.627 9.4145 6.3444 7.5293 25.584-2.7871 28.449-4.6108 1.2806-7.8843 0.42771-11.387-2.9668-6.9535-6.7395-5.4178-21.877 2.6426-26.045 1.5937-0.8242 3.7546-1.1675 5.8789-1.0645zm-248.05 1.041c0.18299 0.022869 0.37651 0.12773 0.59375 0.31055 0.34193 0.288 0.31368 0.21743 2.8691 7.082 1.9473 5.2303 2.1399 5.6317 3.2793 6.8184 1.6256 1.6928 3.7436 2.7004 6.2637 2.9824 0.51389 0.057827 0.94799 0.11807 0.96289 0.13281 0.035527 0.034016 2.3848 5.7742 2.3848 5.8242 0 0.072945-11.475 0.011137-12.057-0.064454v-0.001953c-2.1792-0.28535-4.2178-1.0838-4.7812-1.875-0.10628-0.14854-0.92509-2.4116-1.8223-5.0273-1.6658-4.8568-2.1387-5.9844-2.7695-6.6152l-0.35742-0.35742 0.22461-0.46484c0.64216-1.332 4.1021-7.8912 4.3086-8.168 0.3173-0.42527 0.59541-0.61429 0.90039-0.57617zm8.6895 6.541c0.38738-0.021238 0.7689 0.18249 1.0605 0.59375 0.2767 0.39031 3.7663 8.9893 3.6777 9.0625-0.039458 0.034015-0.35491 0.026076-0.69336-0.011719v0.001953c-2.4936-0.30047-4.7861-1.6568-6.1172-3.6172-0.39408-0.57933-1.0929-2.2187-1.0898-2.5547 0.001183-0.22224 2.0245-2.8302 2.4746-3.1914 0.22024-0.1768 0.45507-0.27046 0.6875-0.2832zm-14.869 3.4727c0.13086-1e-5 0.26507 0.08544 0.43555 0.25586 0.48217 0.48193 0.89578 1.4895 2.2969 5.5898 1.8587 5.44 1.9035 5.5562 2.2227 5.9746 0.23838 0.31181 0.63766 0.61865 1.5957 1.2227 0.14468 0.091464-1.3269 0.11889-6.6777 0.12305-5.225 0.003704-6.8652-0.022887-6.8652-0.11133 0-0.21997 6.3242-12.528 6.5762-12.799 0.15872-0.17046 0.28515-0.25585 0.41602-0.25586z"
       fill="#555"
       stroke-width=".3739"
       id="path212"
       style="fill:#e1e5ee;fill-opacity:1" />
  </g>
</svg>
