<?xml version="1.0" encoding="UTF-8"?>
<svg width="388" height="70" version="1.1" viewBox="0 0 102.66 18.521" xmlns="http://www.w3.org/2000/svg">
 <g transform="translate(0 -278.48)">
  <path d="m-202.26 140.96c-4.5879-0.61473-7.4499-5.1035-6.5091-10.209 0.39788-2.1593 1.005-3.3728 2.3251-4.6466 1.5497-1.4955 3.1813-2.1054 5.6326-2.1054 2.6882 0 4.3589 0.69211 5.9545 2.4668 1.5097 1.6792 2.0971 3.4273 2.0745 6.1739-0.0469 5.6879-3.8971 9.0681-9.4775 8.3204zm3.5875-2.9625c1.7341-0.87446 2.6378-2.7546 2.6299-5.4714-9e-3 -3.1971-1.2725-5.1863-3.7104-5.8428-3.1658-0.85245-5.8956 1.8889-5.8705 5.8954 0.0176 2.8155 0.96479 4.6703 2.8137 5.51 1.4467 0.65702 2.7087 0.62921 4.1373-0.0912zm17.776 2.9761c-2.7496-0.58063-5.4801-2.9493-6.1948-5.3738-0.55424-1.8803-0.40993-5.1259 0.29949-6.7357 0.82405-1.8699 3.0276-3.8821 4.8411-4.4206 1.5609-0.46354 4.6404-0.52635 6.0886-0.12418 0.97981 0.27211 0.99218 0.29227 0.99218 1.6169 0 1.2722-0.0307 1.3313-0.59531 1.1471-0.32742-0.10682-1.5011-0.2516-2.6081-0.32175-2.1444-0.13588-3.1292 0.16324-4.4285 1.3451-1.9605 1.7833-2.2997 5.7388-0.69947 8.157 1.2534 1.894 4.1817 2.7324 6.9423 1.9877l1.3891-0.3747v1.2907c0 1.1416-0.0783 1.3205-0.67782 1.5484-1.0086 0.38346-4.0579 0.53048-5.3487 0.25788zm68.997-0.04c-4.097-0.66151-6.5598-4.2072-6.2954-9.0635 0.27379-5.0273 3.197-7.8846 8.0527-7.8711 2.7415 8e-3 4.6256 0.8186 6.0934 2.6227 1.5024 1.8468 2.0366 3.7013 1.887 6.5516-0.2882 5.4911-4.2479 8.6467-9.7377 7.7603zm4.2296-3.0876c1.6565-1.2262 2.5194-3.4633 2.3174-6.0078-0.25553-3.2188-2.1316-5.265-4.8272-5.265-3.4794 0-5.6605 3.7561-4.6433 7.9962 0.38386 1.6001 1.8128 3.3801 3.0078 3.7468 1.1796 0.36196 3.3543 0.11524 4.1453-0.47026zm-118.79-5.2063v-8.3344l3.7703 6e-3c4.1698 6e-3 5.2358 0.28865 6.5978 1.7468 0.93089 0.99663 1.2736 1.9564 1.2736 3.5668 0 1.6613-0.77421 3.223-1.9873 4.0088-0.53901 0.34912-0.91771 0.81165-0.91935 1.1228-2e-3 0.29104 0.83059 1.7793 1.8492 3.3073l1.852 2.7781-1.4921 0.0804c-0.82066 0.0443-1.6293 0.0278-1.7969-0.0365s-1.1205-1.44-2.1174-3.057c-1.7874-2.8992-1.8264-2.94-2.8054-2.94-0.66118 0-1.0464 0.13978-1.1534 0.41852-0.0883 0.23018-0.1606 1.5994-0.1606 3.0427v2.6242h-2.9104zm7.6435-0.76715c1.445-1.3077 1.275-3.9631-0.31575-4.933-1.1894-0.7252-3.7565-0.72875-4.1435-6e-3 -0.36291 0.67811-0.35176 4.4046 0.0152 5.0904 0.25702 0.48025 0.48991 0.52889 2.0972 0.43807 1.2775-0.0722 1.9662-0.24521 2.3468-0.58963zm50.036 0.76715v-8.3344h2.9104v16.669h-2.9104zm7.2945 4.2418c-1.5381-2.2509-2.7965-4.1508-2.7965-4.222 0-0.18394 4.7674-7.6214 5.1518-8.0372 0.21251-0.22985 0.85721-0.31789 1.9375-0.26459l1.619 0.0799-2.5021 3.8143c-1.3762 2.0979-2.5021 4.0413-2.5021 4.3188 0 0.38701 3.5829 5.779 5.3642 8.0727 0.20005 0.2576-0.15577 0.33073-1.6092 0.33073h-1.8661zm12.285-4.2418v-8.3344h3.6522c3.411 0 3.7442 0.0458 5.0448 0.69398 2.3264 1.1593 3.3871 3.5592 2.7003 6.1098-0.65129 2.4187-2.6587 3.7888-5.8411 3.9866-1.0914 0.0678-2.1332 0.24219-2.3151 0.38745-0.22443 0.17922-0.33073 1.104-0.33073 2.8775v2.6134h-2.9104zm6.7847-0.0357c1.1053-0.5245 1.682-1.5555 1.682-3.007 0-2.3242-1.2927-3.3102-4.101-3.1284l-1.3229 0.0857-0.0756 2.8934c-0.0416 1.5914-0.0156 3.0499 0.0578 3.2411 0.19161 0.49933 2.6454 0.44397 3.7597-0.0848zm9.8841 0.0357v-8.3344h2.9104v6.728c0 5.7636 0.0596 6.7876 0.41578 7.1438 0.32725 0.32725 1.0314 0.41578 3.3073 0.41578h2.8915v2.3812h-9.525zm39.626 1.1245-0.0704-7.2099-4.101-0.1546v-2.0944h11.642v2.1167h-1.9751c-1.6819 0-2.0157 0.076-2.249 0.51178-0.16831 0.31449-0.27389 3.1192-0.27389 7.276v6.7643h-2.9019zm-100.01-36.248c1.3028-2.5102 5.1387-10.041 8.5242-16.735s6.4942-12.523 6.9081-12.954l0.75266-0.78276 0.83618 0.78276c0.81466 0.76261 2.5558 4.1159 3.0911 5.9533 0.1466 0.50318 1.5364 4.6058 3.0885 9.117 1.5521 4.5111 3.3092 9.6308 3.9046 11.377 1.4469 4.2432 2.3656 5.5119 5.401 7.4589 0.38302 0.24568-3.4076 0.3186-17.192 0.33073l-17.683 0.0156zm46.359 4.3949c-0.3638-0.0534-1.5544-0.22646-2.6458-0.38457-4.6834-0.67849-9.4266-2.4041-11.176-4.066-1.1705-1.1118-0.8719-0.32522-7.3356-19.325-3.0242-8.8896-3.504-9.9986-5.3198-12.296l-1.1154-1.4111 0.95513-1.8779c5.5152-10.843 10.883-20.777 11.558-21.391 0.44041-0.40018 1.0874-0.7276 1.4377-0.7276 0.7951 0 2.102 1.0745 2.4876 2.0452 0.16014 0.40313 1.9723 5.2573 4.027 10.787 8.4998 22.876 7.7939 21.312 11.291 25.009 4.6637 4.9309 10.486 7.7528 17.206 8.339 1.1934 0.1041 2.2719 0.3229 2.3967 0.48622 0.12475 0.16332 0.77681 1.6662 1.449 3.3397 0.67223 1.6735 2.0009 4.9454 2.9526 7.2708 0.95167 2.3255 1.7303 4.2602 1.7303 4.2995 0 0.10867-29.141 0.0133-29.898-0.0978zm19.579-18.928c-2.6752-0.57308-5.0219-1.394-7.276-2.5453-1.9592-1.0006-2.8548-1.6877-5.0527-3.876-2.7703-2.7581-3.6447-4.1553-5.1016-8.1517l-0.5553-1.5232 2.5464-3.3716c2.9968-3.968 3.6859-4.7465 4.6444-5.2473 1.0999-0.57462 1.7078-0.45434 2.8307 0.56011 1.0363 0.93626 1.084 1.0333 4.1534 8.4593 0.92234 2.2315 6.169 15.111 6.3863 15.677 0.15016 0.39115-0.80536 0.3982-2.5755 0.019z" fill="none"/>
  <path d="m22.466 278.66-0.71934 3e-3v1.3488h-1.1689v-1.3488h-0.80925v1.3488h-1.1689v-1.3488h-0.80925v1.3488h-1.1689v-1.3488h-0.71934v1.3488h-1.2366l-0.86558 0.93431-0.86506 0.93482v1.0981h-1.3488v0.71933h1.3488v1.1689h-1.3488v0.80926h1.3488v1.1689h-1.3488v0.80925h1.3488v1.1689h-1.3488l-0.0021 0.71934h1.3462l0.02481 1.4609 1.4857 1.4862 1.4614 0.0248v1.3462l0.71934-3e-3v-1.3488h1.1689v1.3488h0.80925v-1.3488h1.1689v1.3488h0.80925v-1.3488h1.1689v1.3488l0.71934 4e-3v-1.3441l1.1224-0.0538 0.92242-1.1018c0.83198-0.99403 0.92242-1.1375 0.92242-1.4614v-0.35916h1.3482v-0.71933h-1.3488v-1.2139l1.3488 0.0274 5.29e-4 -0.79169h-1.3488v-1.1689h1.3488l-5.29e-4 -0.79116-1.3488 0.0269v-1.2139h1.3488l0.0026-0.71934h-1.3467l-0.02481-1.4609-1.4857-1.4857-1.4609-0.0248zm61.761 1.1131c-1.3115-3e-3 -1.6891 0.0775-2.7838 0.59325-2.1504 1.0132-3.1915 2.8891-3.1915 5.7516 0 3.3131 1.4147 5.379 4.2245 6.1691 2.3204 0.65247 5.2312-0.22939 6.4926-1.9663 0.97452-1.3418 1.2928-2.5783 1.1958-4.6436-0.06267-1.3351-0.18362-1.9405-0.5209-2.5952-1.1973-2.3242-2.7996-3.3024-5.4167-3.3088zm-26.187 0.0822c-0.94376-0.0122-1.708 0.0422-1.8826 0.18707-0.24955 0.20709-0.29042 1.0761-0.29042 6.1614 0 3.2564 0.05656 5.9776 0.12609 6.0472 0.06955 0.0696 0.66729 0.12609 1.3281 0.12609h1.201v-1.8583c0-1.193 0.08182-1.9411 0.22789-2.0872 0.12521-0.12519 0.74386-0.2317 1.3751-0.23565 1.8823-0.0138 3.5481-0.85034 4.1992-2.1094 0.41886-0.80995 0.55276-2.4266 0.27182-3.2778-0.32168-0.97476-1.2666-1.9953-2.25-2.4304-0.66302-0.29329-2.7333-0.50187-4.3062-0.52296zm-7.3959 8e-3c-0.63201 0.0161-1.2876 0.0976-1.4614 0.23202-0.53472 0.41312-3.9637 5.9076-3.8819 6.2203 0.04309 0.16463 0.94558 1.5963 2.0056 3.1812l1.927 2.8815h1.619c1.2978 0 1.5887-0.0501 1.4671-0.25269-0.08335-0.139-1.0271-1.4948-2.0965-3.0127s-1.9446-2.851-1.9446-2.9626c0-0.11154 0.85235-1.498 1.8939-3.081 1.0416-1.583 1.8477-2.9528 1.7911-3.0443-0.07907-0.12781-0.68729-0.17782-1.3193-0.16174zm-14.804 0.0217c-0.28315-1e-3 -0.61987 6e-3 -1.0299 0.0202-1.6984 0.0576-2.1332 0.14039-2.9523 0.56431-1.1474 0.59393-2.2534 1.766-2.8014 2.9693-0.31443 0.69034-0.40057 1.2607-0.40566 2.6794-0.0052 1.5558 0.06249 1.947 0.49144 2.8618 0.81292 1.7334 2.2955 2.9566 4.1 3.3817 1.7239 0.40614 4.4492 0.09 4.7951-0.55604 0.20213-0.37748 0.25816-1.9489 0.07648-2.1306-0.06066-0.0606-0.42289 0.022-0.80564 0.18345-0.38272 0.16152-1.2509 0.29762-1.9291 0.30282-2.5453 0.0184-3.9837-1.4245-3.9837-3.9966 0-1.36 0.55182-2.535 1.572-3.3466 0.90644-0.72112 2.6389-0.90021 4.0509-0.41909 0.5078 0.17303 0.9725 0.23519 1.0651 0.14262 0.09037-0.0903 0.13784-0.58179 0.10542-1.0919-0.05365-0.84431-0.11866-0.95854-0.72295-1.2702-0.41006-0.21098-0.77628-0.29101-1.6257-0.29455zm7.8238 2e-3v5.1e-4c-0.14281-3e-3 -0.30519 4e-4 -0.48989 9e-3l-1.0604 0.0558-0.05013 6.2213-0.05064 6.2213 1.2831-0.0558 1.2836-0.0568 0.05013-5.9526c0.03661-4.3438-0.01077-6.0255-0.17312-6.2213-0.11644-0.14024-0.3643-0.21125-0.79272-0.2217zm25.873 1e-3 5.29e-4 5.2e-4c-0.13523-4e-3 -0.27811-8e-4 -0.42375 6e-3l-1.0113 0.0579-0.05064 6.2167-0.04961 6.2167 3.6546-0.0512 3.6535-0.0522 0.05943-0.81959c0.09161-1.274-0.0717-1.3622-2.5482-1.3622h-2.1585v-4.9087c0-4.0073-0.04947-4.9496-0.26923-5.132-0.11633-0.0965-0.45107-0.16041-0.8568-0.17208zm26.451 2e-3c-1.617 6e-3 -2.3527 0.0639-2.4986 0.185-0.17401 0.14437-0.24991 0.50009-0.21342 0.99891l0.05633 0.77514 1.3203 0.0574c0.72598 0.0313 1.43 0.1486 1.5648 0.26044 0.18887 0.1568 0.24546 1.3509 0.24546 5.2157v5.0126l1.28-0.0563 1.2805-0.0563 0.09457-5.1211 0.09509-5.1227 1.4795-0.0548 1.48-0.0563-0.0568-0.98805-0.0574-0.98702-4.1491-0.0517c-0.7457-9e-3 -1.3829-0.0134-1.9218-0.0103zm-95.228 0.0625s-0.015848 1.038-0.028939 2.064h4.1594c1.0791 0 1.9477 0.8691 1.9477 1.9482 0 0.21791-0.036886 0.42633-0.10232 0.62166-0.014724 0.0466-0.031716 0.0922-0.050126 0.13746-0.098766 0.24303-0.24649 0.4675-0.44855 0.65733-0.016785 0.0158-0.040657 0.0297-0.059945 0.045-0.34288 0.30188-0.79189 0.48627-1.2867 0.48627h-0.25373c-0.12981 0.0134-0.25783 0.0231-0.37827 0.0248v5.3e-4h-0.00723c-0.014838 2e-4 -0.028887 0-0.043408 0h-3.4959l-0.002066 0.23616-0.080615 6.1753 1.3126-0.0109 1.2842-0.0563 0.094051-2.0867c0.094551-2.0795 0.097003-2.0869 0.58963-2.1441 0.44422-0.0516 0.6334 0.1654 1.8624 2.1342l1.3679 2.1916h1.5162c1.1587 0 1.4831-0.0559 1.3792-0.23719-0.07478-0.13042-0.71955-1.1406-1.4335-2.2448s-1.2981-2.1006-1.2981-2.2138c0-0.11323 0.29284-0.38661 0.65061-0.60772 0.8846-0.54673 1.4361-1.7409 1.4361-3.1094-5e-7 -1.3553-0.32307-2.1448-1.1886-2.9047-1.03-0.90435-1.816-1.0849-4.7868-1.0966zm18.391 0.58136 4.8943 2.8376-0.01137 5.6586-4.9051 2.819-4.8948-2.8381 0.01137-5.658zm-1e-3 0.62425-4.3646 2.5079-0.01034 5.0338 4.3548 2.5249 4.3641-2.5079 0.01033-5.0343zm40.703 0.81132c1.4887-9e-3 2.2749 0.66771 2.2701 1.9616-4e-3 1.0318-0.34571 1.6468-1.1374 2.0438-0.79503 0.39883-1.9534 0.43374-2.2572 0.0677-0.14301-0.17239-0.20122-0.91912-0.16588-2.1342l0.05478-1.8691 0.92862-0.0594c0.10551-6e-3 0.2077-9e-3 0.30696-0.0103zm24.507 0.16691c0.56202 0.0273 1.1141 0.17342 1.4955 0.43047 2.4909 1.6786 1.9921 6.7691-0.73742 7.5272-1.2199 0.33883-2.086 0.11316-3.0127-0.78497-1.8398-1.7832-1.4335-5.7882 0.69918-6.891 0.42167-0.21807 0.99341-0.30891 1.5555-0.28164zm-65.63 0.27544c0.04842 6e-3 0.09962 0.0338 0.1571 0.0822 0.09047 0.0762 0.08299 0.0575 0.75913 1.8738 0.51522 1.3839 0.56619 1.4901 0.86765 1.804 0.43011 0.44789 0.9905 0.71448 1.6573 0.7891 0.13597 0.0153 0.25082 0.0312 0.25476 0.0351 0.0094 9e-3 0.63097 1.5278 0.63097 1.541 0 0.0193-3.036 3e-3 -3.19-0.017v-5.3e-4c-0.57658-0.0755-1.116-0.28676-1.265-0.4961-0.02812-0.0393-0.24476-0.63808-0.48214-1.3302-0.44074-1.285-0.56585-1.5834-0.73277-1.7503l-0.09457-0.0946 0.05943-0.12299c0.1699-0.35243 1.0853-2.0879 1.14-2.1611 0.08395-0.11251 0.15754-0.16253 0.23823-0.15244zm2.2991 1.7306c0.10249-6e-3 0.20344 0.0483 0.2806 0.1571 0.07321 0.10327 0.99651 2.3784 0.97307 2.3978-0.01044 9e-3 -0.09391 7e-3 -0.18345-3e-3v5.2e-4c-0.65976-0.0795-1.2663-0.43837-1.6185-0.95705-0.10427-0.15328-0.28916-0.58703-0.28836-0.67593 3.17e-4 -0.0588 0.53564-0.74883 0.65474-0.8444 0.05827-0.0468 0.1204-0.0716 0.1819-0.0749zm-3.9341 0.91881c0.03462 0 0.07013 0.0226 0.11524 0.0677 0.12757 0.12751 0.23701 0.3941 0.60772 1.479 0.49178 1.4393 0.50364 1.4701 0.58808 1.5808 0.06307 0.0825 0.16872 0.16368 0.4222 0.32349 0.03828 0.0242-0.35107 0.0315-1.7668 0.0326-1.3824 9.8e-4 -1.8164-6e-3 -1.8164-0.0295 0-0.0582 1.6733-3.3147 1.7399-3.3864 0.042-0.0451 0.07545-0.0677 0.11007-0.0677z" fill="#e1e5ee" stroke-width=".098929"/>
  <text x="75.437981" y="296.10358" fill="#e1e5ee" font-family="Cambria" font-size="4.5861px" letter-spacing="0px" stroke-width=".13173" word-spacing="0px" style="font-feature-settings:normal;font-variant-caps:normal;font-variant-ligatures:normal;font-variant-numeric:normal;line-height:1.25" xml:space="preserve"><tspan x="75.437981" y="296.10358" fill="#e1e5ee" font-family="Cambria" font-size="4.5861px" stroke-width=".13173" style="font-feature-settings:normal;font-variant-caps:normal;font-variant-ligatures:normal;font-variant-numeric:normal">BETA Version</tspan></text>
 </g>
</svg>
