<?xml version="1.0" encoding="UTF-8"?>
<svg width="70" height="70" version="1.1" viewBox="0 0 18.521 18.521" xmlns="http://www.w3.org/2000/svg">
 <g transform="translate(0 -278.48)">
  <path d="m-202.26 140.96c-4.5879-0.61473-7.4499-5.1035-6.5091-10.209 0.39788-2.1593 1.005-3.3728 2.3251-4.6466 1.5497-1.4955 3.1813-2.1054 5.6326-2.1054 2.6882 0 4.3589 0.69211 5.9545 2.4668 1.5097 1.6792 2.0971 3.4273 2.0745 6.1739-0.0469 5.6879-3.8971 9.0681-9.4775 8.3204zm3.5875-2.9625c1.7341-0.87446 2.6378-2.7546 2.6299-5.4714-9e-3 -3.1971-1.2725-5.1863-3.7104-5.8428-3.1658-0.85245-5.8956 1.8889-5.8705 5.8954 0.0176 2.8155 0.96479 4.6703 2.8137 5.51 1.4467 0.65702 2.7087 0.62921 4.1373-0.0912zm17.776 2.9761c-2.7496-0.58063-5.4801-2.9493-6.1948-5.3738-0.55424-1.8803-0.40993-5.1259 0.29949-6.7357 0.82405-1.8699 3.0276-3.8821 4.8411-4.4206 1.5609-0.46354 4.6404-0.52635 6.0886-0.12418 0.97981 0.27211 0.99218 0.29227 0.99218 1.6169 0 1.2722-0.0307 1.3313-0.59531 1.1471-0.32742-0.10682-1.5011-0.2516-2.6081-0.32175-2.1444-0.13588-3.1292 0.16324-4.4285 1.3451-1.9605 1.7833-2.2997 5.7388-0.69947 8.157 1.2534 1.894 4.1817 2.7324 6.9423 1.9877l1.3891-0.3747v1.2907c0 1.1416-0.0783 1.3205-0.67782 1.5484-1.0086 0.38346-4.0579 0.53048-5.3487 0.25788zm68.997-0.04c-4.097-0.66151-6.5598-4.2072-6.2954-9.0635 0.27379-5.0273 3.197-7.8846 8.0527-7.8711 2.7415 8e-3 4.6256 0.8186 6.0934 2.6227 1.5024 1.8468 2.0366 3.7013 1.887 6.5516-0.2882 5.4911-4.2479 8.6467-9.7377 7.7603zm4.2296-3.0876c1.6565-1.2262 2.5194-3.4633 2.3174-6.0078-0.25553-3.2188-2.1316-5.265-4.8272-5.265-3.4794 0-5.6605 3.7561-4.6433 7.9962 0.38386 1.6001 1.8128 3.3801 3.0078 3.7468 1.1796 0.36196 3.3543 0.11524 4.1453-0.47026zm-118.79-5.2063v-8.3344l3.7703 6e-3c4.1698 6e-3 5.2358 0.28865 6.5978 1.7468 0.93089 0.99663 1.2736 1.9564 1.2736 3.5668 0 1.6613-0.77421 3.223-1.9873 4.0088-0.53901 0.34912-0.91771 0.81165-0.91935 1.1228-2e-3 0.29104 0.83059 1.7793 1.8492 3.3073l1.852 2.7781-1.4921 0.0804c-0.82066 0.0443-1.6293 0.0278-1.7969-0.0365s-1.1205-1.44-2.1174-3.057c-1.7874-2.8992-1.8264-2.94-2.8054-2.94-0.66118 0-1.0464 0.13978-1.1534 0.41852-0.0883 0.23018-0.1606 1.5994-0.1606 3.0427v2.6242h-2.9104zm7.6435-0.76715c1.445-1.3077 1.275-3.9631-0.31575-4.933-1.1894-0.7252-3.7565-0.72875-4.1435-6e-3 -0.36291 0.67811-0.35176 4.4046 0.0152 5.0904 0.25702 0.48025 0.48991 0.52889 2.0972 0.43807 1.2775-0.0722 1.9662-0.24521 2.3468-0.58963zm50.036 0.76715v-8.3344h2.9104v16.669h-2.9104zm7.2945 4.2418c-1.5381-2.2509-2.7965-4.1508-2.7965-4.222 0-0.18394 4.7674-7.6214 5.1518-8.0372 0.21251-0.22985 0.85721-0.31789 1.9375-0.26459l1.619 0.0799-2.5021 3.8143c-1.3762 2.0979-2.5021 4.0413-2.5021 4.3188 0 0.38701 3.5829 5.779 5.3642 8.0727 0.20005 0.2576-0.15577 0.33073-1.6092 0.33073h-1.8661zm12.285-4.2418v-8.3344h3.6522c3.411 0 3.7442 0.0458 5.0448 0.69398 2.3264 1.1593 3.3871 3.5592 2.7003 6.1098-0.65129 2.4187-2.6587 3.7888-5.8411 3.9866-1.0914 0.0678-2.1332 0.24219-2.3151 0.38745-0.22443 0.17922-0.33073 1.104-0.33073 2.8775v2.6134h-2.9104zm6.7847-0.0357c1.1053-0.5245 1.682-1.5555 1.682-3.007 0-2.3242-1.2927-3.3102-4.101-3.1284l-1.3229 0.0857-0.0756 2.8934c-0.0416 1.5914-0.0156 3.0499 0.0578 3.2411 0.19161 0.49933 2.6454 0.44397 3.7597-0.0848zm9.8841 0.0357v-8.3344h2.9104v6.728c0 5.7636 0.0596 6.7876 0.41578 7.1438 0.32725 0.32725 1.0314 0.41578 3.3073 0.41578h2.8915v2.3812h-9.525zm39.626 1.1245-0.0704-7.2099-4.101-0.1546v-2.0944h11.642v2.1167h-1.9751c-1.6819 0-2.0157 0.076-2.249 0.51178-0.16831 0.31449-0.27389 3.1192-0.27389 7.276v6.7643h-2.9019zm-100.01-36.248c1.3028-2.5102 5.1387-10.041 8.5242-16.735s6.4942-12.523 6.9081-12.954l0.75266-0.78276 0.83618 0.78276c0.81466 0.76261 2.5558 4.1159 3.0911 5.9533 0.1466 0.50318 1.5364 4.6058 3.0885 9.117 1.5521 4.5111 3.3092 9.6308 3.9046 11.377 1.4469 4.2432 2.3656 5.5119 5.401 7.4589 0.38302 0.24568-3.4076 0.3186-17.192 0.33073l-17.683 0.0156zm46.359 4.3949c-0.3638-0.0534-1.5544-0.22646-2.6458-0.38457-4.6834-0.67849-9.4266-2.4041-11.176-4.066-1.1705-1.1118-0.8719-0.32522-7.3356-19.325-3.0242-8.8896-3.504-9.9986-5.3198-12.296l-1.1154-1.4111 0.95513-1.8779c5.5152-10.843 10.883-20.777 11.558-21.391 0.44041-0.40018 1.0874-0.7276 1.4377-0.7276 0.7951 0 2.102 1.0745 2.4876 2.0452 0.16014 0.40313 1.9723 5.2573 4.027 10.787 8.4998 22.876 7.7939 21.312 11.291 25.009 4.6637 4.9309 10.486 7.7528 17.206 8.339 1.1934 0.1041 2.2719 0.3229 2.3967 0.48622 0.12475 0.16332 0.77681 1.6662 1.449 3.3397 0.67223 1.6735 2.0009 4.9454 2.9526 7.2708 0.95167 2.3255 1.7303 4.2602 1.7303 4.2995 0 0.10867-29.141 0.0133-29.898-0.0978zm19.579-18.928c-2.6752-0.57308-5.0219-1.394-7.276-2.5453-1.9592-1.0006-2.8548-1.6877-5.0527-3.876-2.7703-2.7581-3.6447-4.1553-5.1016-8.1517l-0.5553-1.5232 2.5464-3.3716c2.9968-3.968 3.6859-4.7465 4.6444-5.2473 1.0999-0.57462 1.7078-0.45434 2.8307 0.56011 1.0363 0.93626 1.084 1.0333 4.1534 8.4593 0.92234 2.2315 6.169 15.111 6.3863 15.677 0.15016 0.39115-0.80536 0.3982-2.5755 0.019z" fill="none"/>
  <path d="m6.7522 286.46c0.040159 0 0.08135 0.0262 0.13367 0.0785 0.14798 0.14791 0.27493 0.45715 0.70494 1.7156 0.57046 1.6696 0.58422 1.7053 0.68216 1.8337 0.07316 0.0957 0.19571 0.18986 0.48974 0.37524 0.044404 0.0281-0.40724 0.0365-2.0495 0.0378-1.6036 1e-3 -2.107-7e-3 -2.107-0.0342 0-0.0675 1.941-3.8451 2.0183-3.9281 0.048719-0.0523 0.087521-0.0785 0.12768-0.0785zm4.5635-1.0658c0.11889-7e-3 0.23598 0.056 0.3255 0.18223 0.08492 0.1198 1.1559 2.759 1.1287 2.7814-0.01211 0.0104-0.10893 8e-3 -0.2128-3e-3v6.1e-4c-0.76531-0.0922-1.4689-0.50851-1.8774-1.1102-0.12095-0.1778-0.33542-0.68095-0.33449-0.78407 3.68e-4 -0.0682 0.62134-0.86864 0.75949-0.9795 0.06759-0.0543 0.13967-0.083 0.211-0.0869zm-2.6669-2.0075c0.056167 7e-3 0.11556 0.0392 0.18223 0.0953 0.10494 0.0884 0.096267 0.0667 0.88058 2.1736 0.59765 1.6053 0.65678 1.7284 1.0065 2.0927 0.49892 0.51954 1.149 0.82879 1.9224 0.91534 0.15772 0.0177 0.29095 0.0362 0.29552 0.0407 0.0109 0.0104 0.73192 1.7722 0.73192 1.7875 0 0.0224-3.5217 3e-3 -3.7003-0.0197v-6.1e-4c-0.66883-0.0876-1.2945-0.33264-1.4674-0.57547-0.032619-0.0456-0.28392-0.74017-0.55928-1.543-0.51125-1.4906-0.65638-1.8367-0.85001-2.0303l-0.1097-0.10973 0.068938-0.14267c0.19709-0.40882 1.259-2.4219 1.3224-2.5069 0.097381-0.13051 0.18274-0.18854 0.27634-0.17683zm0.48675-1.4542-5.0629 2.9091-0.011994 5.8392 5.0515 2.9289 5.0623-2.9091 0.01198-5.8398zm0.00116-0.72412 5.6773 3.2915-0.01319 6.5639-5.6899 3.27-5.6779-3.2921 0.013189-6.5633zm3.8454-2.1737-0.83442 3e-3v1.5646h-1.3559v-1.5646h-0.93872v1.5646h-1.3559v-1.5646h-0.93872v1.5646h-1.3559v-1.5646h-0.83442v1.5646h-1.4345l-1.0041 1.0838-1.0035 1.0844v1.2738h-1.5645v0.83441h1.5645v1.3559h-1.5645v0.93873h1.5645v1.3559h-1.5645v0.93872h1.5645v1.3559h-1.5645l-0.002436 0.83442h1.5615l0.028779 1.6946 1.7234 1.724 1.6952 0.0288v1.5616l0.83442-3e-3v-1.5646h1.3559v1.5646h0.93872v-1.5646h1.3559v1.5646h0.93872v-1.5646h1.3559v1.5646l0.83442 5e-3v-1.5591l1.302-0.0624 1.07-1.278c0.96508-1.1531 1.07-1.3195 1.07-1.6952v-0.41662h1.5639v-0.83441h-1.5645v-1.4081l1.5645 0.0318 6.14e-4 -0.91835h-1.5645v-1.3559h1.5645l-6.14e-4 -0.91774-1.5645 0.0312v-1.4081h1.5645l3e-3 -0.83443h-1.5621l-0.02878-1.6946-1.7234-1.7234-1.6946-0.0288z" fill="#555" stroke-width=".11476"/>
 </g>
</svg>
