<?xml version="1.0" encoding="UTF-8" standalone="no"?>
<!-- Created with Inkscape (http://www.inkscape.org/) -->

<svg
   xmlns:dc="http://purl.org/dc/elements/1.1/"
   xmlns:cc="http://creativecommons.org/ns#"
   xmlns:rdf="http://www.w3.org/1999/02/22-rdf-syntax-ns#"
   xmlns:svg="http://www.w3.org/2000/svg"
   xmlns="http://www.w3.org/2000/svg"
   xmlns:sodipodi="http://sodipodi.sourceforge.net/DTD/sodipodi-0.dtd"
   xmlns:inkscape="http://www.inkscape.org/namespaces/inkscape"
   width="70"
   height="70"
   viewBox="0 0 18.520831 18.52083"
   version="1.1"
   id="svg8"
   inkscape:version="0.92.4 (5da689c313, 2019-01-14)"
   sodipodi:docname="rockplot_logo_grey.svg">
  <defs
     id="defs2">
    <clipPath
       clipPathUnits="userSpaceOnUse"
       id="clipPath3726">
      <rect
         id="rect3728"
         width="190.5"
         height="136.82739"
         x="-297.84521"
         y="53.583332"
         style="stroke-width:0.26458332" />
    </clipPath>
  </defs>
  <sodipodi:namedview
     id="base"
     pagecolor="#ffffff"
     bordercolor="#666666"
     borderopacity="1.0"
     inkscape:pageopacity="0.0"
     inkscape:pageshadow="2"
     inkscape:zoom="2.8284271"
     inkscape:cx="180.5611"
     inkscape:cy="79.388513"
     inkscape:document-units="mm"
     inkscape:current-layer="layer1"
     showgrid="false"
     showguides="true"
     inkscape:guide-bbox="true"
     inkscape:snap-others="false"
     inkscape:snap-nodes="false"
     inkscape:snap-global="false"
     inkscape:window-width="1920"
     inkscape:window-height="1017"
     inkscape:window-x="1912"
     inkscape:window-y="-8"
     inkscape:window-maximized="1"
     units="px"
     width="102px" />
  <metadata
     id="metadata5">
    <rdf:RDF>
      <cc:Work
         rdf:about="">
        <dc:format>image/svg+xml</dc:format>
        <dc:type
           rdf:resource="http://purl.org/dc/dcmitype/StillImage" />
        <dc:title></dc:title>
      </cc:Work>
    </rdf:RDF>
  </metadata>
  <g
     inkscape:label="Camada 1"
     inkscape:groupmode="layer"
     id="layer1"
     style="display:inline"
     transform="translate(0,-278.4792)">
    <path
       inkscape:connector-curvature="0"
       id="path3745"
       d="m -202.26063,140.9574 c -4.58789,-0.61473 -7.44986,-5.10352 -6.50913,-10.20908 0.39788,-2.15933 1.00505,-3.37275 2.3251,-4.64665 1.54969,-1.4955 3.18127,-2.10535 5.63259,-2.10535 2.68823,0 4.35887,0.69211 5.95449,2.46683 1.50971,1.67916 2.09711,3.42734 2.07449,6.1739 -0.0469,5.68791 -3.89712,9.06807 -9.47754,8.32035 z m 3.58754,-2.96254 c 1.73412,-0.87446 2.63782,-2.75455 2.62994,-5.4714 -0.009,-3.19708 -1.27252,-5.18632 -3.71039,-5.84277 -3.16577,-0.85245 -5.89559,1.88894 -5.87051,5.89538 0.0176,2.81548 0.96479,4.67031 2.81366,5.50996 1.44672,0.65702 2.70874,0.62921 4.1373,-0.0912 z m 17.77587,2.97609 c -2.74956,-0.58063 -5.48014,-2.94934 -6.19478,-5.3738 -0.55424,-1.88033 -0.40993,-5.12594 0.29949,-6.73573 0.82405,-1.8699 3.02763,-3.88211 4.84108,-4.42065 1.56092,-0.46354 4.64042,-0.52635 6.08857,-0.12418 0.97981,0.27211 0.99218,0.29227 0.99218,1.61688 0,1.27217 -0.0307,1.33133 -0.59531,1.14714 -0.32742,-0.10682 -1.50107,-0.2516 -2.60811,-0.32175 -2.14439,-0.13588 -3.12919,0.16324 -4.42849,1.34508 -1.96052,1.78329 -2.29971,5.73883 -0.69947,8.15696 1.25336,1.89397 4.18168,2.73241 6.94232,1.98774 l 1.38906,-0.3747 v 1.29071 c 0,1.14161 -0.0783,1.32048 -0.67782,1.54842 -1.00858,0.38346 -4.05786,0.53048 -5.34872,0.25788 z m 68.99738,-0.04 c -4.09704,-0.66151 -6.55984,-4.20722 -6.29537,-9.06349 0.27379,-5.02733 3.19698,-7.88461 8.05269,-7.87111 2.74148,0.008 4.6256,0.8186 6.09335,2.62273 1.50245,1.84678 2.03659,3.70133 1.88699,6.5516 -0.2882,5.49109 -4.24786,8.64667 -9.73766,7.76027 z m 4.22958,-3.08764 c 1.65648,-1.22621 2.51937,-3.46328 2.31737,-6.0078 -0.25553,-3.21876 -2.1316,-5.26499 -4.82716,-5.26499 -3.47942,0 -5.66052,3.75607 -4.64333,7.99623 0.38386,1.6001 1.81282,3.38012 3.00785,3.74682 1.17957,0.36196 3.35432,0.11524 4.14527,-0.47026 z m -118.79417,-5.20627 v -8.33437 l 3.77032,0.006 c 4.16982,0.006 5.23582,0.28865 6.59775,1.74676 0.93089,0.99663 1.2736,1.95642 1.2736,3.56685 0,1.66129 -0.77421,3.22302 -1.98731,4.00877 -0.53901,0.34912 -0.91771,0.81165 -0.91935,1.12284 -0.002,0.29104 0.83059,1.77932 1.84918,3.30729 l 1.85199,2.77813 -1.49211,0.0804 c -0.82066,0.0443 -1.62928,0.0278 -1.79693,-0.0365 -0.16765,-0.0643 -1.12049,-1.43998 -2.11742,-3.057 -1.78744,-2.89922 -1.82638,-2.94003 -2.80535,-2.94003 -0.66118,0 -1.04639,0.13978 -1.15335,0.41852 -0.0883,0.23018 -0.1606,1.5994 -0.1606,3.0427 v 2.6242 h -1.45521 -1.45521 z m 7.64353,-0.76715 c 1.44499,-1.3077 1.27503,-3.96309 -0.31575,-4.93305 -1.18936,-0.7252 -3.75652,-0.72875 -4.14347,-0.006 -0.36291,0.67811 -0.35176,4.4046 0.0152,5.09035 0.25702,0.48025 0.48991,0.52889 2.09723,0.43807 1.27752,-0.0722 1.96617,-0.24521 2.34675,-0.58963 z m 50.03564,0.76715 v -8.33437 h 1.45521 1.45521 v 8.33437 8.33438 h -1.45521 -1.45521 z m 7.29446,4.24184 c -1.5381,-2.2509 -2.79654,-4.15081 -2.79654,-4.22203 0,-0.18394 4.76742,-7.62138 5.15185,-8.03719 0.21251,-0.22985 0.85721,-0.31789 1.93751,-0.26459 l 1.61902,0.0799 -2.50211,3.81428 c -1.37616,2.09786 -2.50211,4.0413 -2.50211,4.31876 0,0.38701 3.58292,5.77901 5.3642,8.07269 0.20005,0.2576 -0.15577,0.33073 -1.60922,0.33073 h -1.86606 z m 12.28471,-4.24184 v -8.33437 h 3.65222 c 3.41097,0 3.7442,0.0458 5.04484,0.69398 2.3264,1.15929 3.38711,3.55924 2.70033,6.10975 -0.65129,2.41871 -2.65873,3.78879 -5.84114,3.98659 -1.09141,0.0678 -2.13321,0.24219 -2.31511,0.38745 -0.22443,0.17922 -0.33073,1.10404 -0.33073,2.87754 v 2.61344 h -1.4552 -1.45521 z m 6.78469,-0.0357 c 1.10527,-0.5245 1.68197,-1.55551 1.68197,-3.00704 0,-2.32417 -1.29267,-3.31025 -4.10104,-3.12838 l -1.32291,0.0857 -0.0756,2.89341 c -0.0416,1.59138 -0.0156,3.04989 0.0578,3.24114 0.19161,0.49933 2.6454,0.44397 3.75974,-0.0848 z m 9.88406,0.0357 v -8.33437 h 1.45521 1.4552 v 6.72797 c 0,5.76357 0.0596,6.78758 0.41578,7.14375 0.32725,0.32725 1.03141,0.41578 3.30729,0.41578 h 2.89152 v 1.19062 1.19063 h -4.7625 -4.7625 z m 39.625603,1.12448 -0.0704,-7.20989 -2.050521,-0.0773 -2.050521,-0.0773 v -1.0472 -1.0472 h 5.820834 5.820833 v 1.05833 1.05833 h -1.975067 c -1.681901,0 -2.01572,0.076 -2.248958,0.51178 -0.168312,0.31449 -0.273892,3.11923 -0.273892,7.27604 v 6.76427 h -1.450956 -1.450957 z M -192.91949,97.513615 c 1.30279,-2.510235 5.13866,-10.040938 8.52416,-16.734896 3.3855,-6.693958 6.49415,-12.523076 6.90811,-12.953593 l 0.75266,-0.782759 0.83618,0.782759 c 0.81466,0.762614 2.55579,4.115949 3.0911,5.953303 0.1466,0.503182 1.53644,4.605811 3.08854,9.116957 1.55209,4.511145 3.30919,9.630833 3.90465,11.377083 1.44692,4.243247 2.36556,5.511906 5.40101,7.458921 0.38302,0.24568 -3.40755,0.3186 -17.19187,0.33073 l -17.68324,0.0156 z m 46.35923,4.394905 c -0.3638,-0.0534 -1.55443,-0.22646 -2.64583,-0.38457 -4.68343,-0.67849 -9.42664,-2.404119 -11.17623,-4.066027 -1.17049,-1.111824 -0.8719,-0.325218 -7.33556,-19.325037 -3.02422,-8.889635 -3.50401,-9.998583 -5.31975,-12.295661 l -1.1154,-1.41109 0.95513,-1.877874 c 5.5152,-10.843456 10.88266,-20.777467 11.55775,-21.390896 0.44041,-0.400182 1.08738,-0.727604 1.43772,-0.727604 0.7951,0 2.10202,1.074468 2.4876,2.045163 0.16014,0.403129 1.97227,5.257337 4.02696,10.787128 8.49981,22.875505 7.79389,21.311878 11.29077,25.009105 4.66369,4.930873 10.48628,7.752792 17.20619,8.338976 1.19342,0.104103 2.27191,0.322905 2.39666,0.486225 0.12475,0.163319 0.77681,1.666163 1.44904,3.339653 0.67223,1.673489 2.00087,4.945361 2.95255,7.270829 0.95167,2.32547 1.73032,4.26023 1.73032,4.29948 0,0.10867 -29.14074,0.0133 -29.89792,-0.0978 z m 19.57917,-18.927986 c -2.6752,-0.573082 -5.0219,-1.393997 -7.27604,-2.545279 -1.95915,-1.000614 -2.85481,-1.687671 -5.05273,-3.87595 -2.77026,-2.758098 -3.64468,-4.155313 -5.10158,-8.151733 l -0.5553,-1.52323 2.54636,-3.371561 c 2.99681,-3.967983 3.68591,-4.746538 4.64438,-5.247267 1.09991,-0.574622 1.7078,-0.454338 2.83067,0.560109 1.03632,0.936255 1.08396,1.033286 4.15342,8.459346 0.92234,2.231454 6.16903,15.1106 6.3863,15.676563 0.15016,0.391149 -0.80536,0.3982 -2.57548,0.019 z"
       style="fill:none;fill-opacity:1;stroke:none;stroke-width:0.26458332" />
    <path
       id="path944"
       style="fill:#e1e5ee;fill-opacity:1;stroke-width:0.11475595"
       d="m 6.7522158,286.45823 c 0.040159,0 0.08135,0.0262 0.1336748,0.0785 0.1479844,0.14791 0.2749277,0.45715 0.7049425,1.7156 0.5704615,1.6696 0.5842213,1.70527 0.6821638,1.83369 0.07316,0.0957 0.1957075,0.18986 0.4897426,0.37524 0.044404,0.0281 -0.4072407,0.0365 -2.0494877,0.0378 -1.6036171,0.001 -2.1070336,-0.007 -2.1070336,-0.0342 0,-0.0675 1.9409708,-3.84506 2.0183165,-3.92813 0.048719,-0.0523 0.087521,-0.0785 0.1276811,-0.0785 z m 4.5635422,-1.06581 c 0.118891,-0.007 0.235984,0.056 0.325497,0.18223 0.08492,0.1198 1.155935,2.75896 1.128746,2.78141 -0.01211,0.0104 -0.108934,0.008 -0.212802,-0.003 v 6.1e-4 c -0.765313,-0.0922 -1.468909,-0.50851 -1.877447,-1.11017 -0.120951,-0.1778 -0.335419,-0.68095 -0.334489,-0.78407 3.68e-4,-0.0682 0.62134,-0.86864 0.759492,-0.9795 0.06759,-0.0543 0.139669,-0.083 0.211003,-0.0869 z M 8.648846,283.3849 c 0.056167,0.007 0.1155581,0.0392 0.1822307,0.0953 0.1049442,0.0884 0.096267,0.0667 0.8805776,2.17356 0.5976467,1.60526 0.6567767,1.72845 1.0064607,2.09266 0.498918,0.51954 1.148964,0.82879 1.922407,0.91534 0.157721,0.0177 0.29095,0.0362 0.295525,0.0407 0.0109,0.0104 0.731917,1.77217 0.731917,1.78753 0,0.0224 -3.521724,0.003 -3.7003477,-0.0197 v -6.1e-4 c -0.6688275,-0.0876 -1.2945091,-0.33264 -1.467431,-0.57547 -0.032619,-0.0456 -0.2839234,-0.74017 -0.5592792,-1.54296 C 7.4296515,286.86066 7.284523,286.51459 7.0909,286.32099 l -0.1097001,-0.10973 0.068938,-0.14267 c 0.1970879,-0.40882 1.2589844,-2.42192 1.3223662,-2.50686 0.097381,-0.13051 0.1827388,-0.18854 0.2763419,-0.17683 z m 0.4867475,-1.45425 -5.0628762,2.90909 -0.011994,5.83915 5.0514873,2.92887 5.0622774,-2.90909 0.01198,-5.83975 z m 0.00116,-0.72412 5.6773035,3.29153 -0.01319,6.56387 -5.6898918,3.26995 -5.6779033,-3.29212 0.013189,-6.56328 z m 3.8454125,-2.17367 -0.834422,0.003 v 1.56455 H 11.469777 10.79181 v -1.56455 H 9.8530859 v 1.56455 H 9.1751178 8.4971508 v -1.56455 H 7.5584265 v 1.56455 H 6.8804583 6.2024914 v -1.56455 H 5.3680697 v 1.56455 H 4.650539 3.933608 l -1.004063,1.08379 -1.0034644,1.08438 v 0.63661 0.63721 H 0.36154119 v 0.83441 H 1.9260806 v 0.67797 0.67797 H 0.36154119 v 0.93873 H 1.9260806 v 0.67797 0.67796 H 0.36154119 v 0.93872 H 1.9260806 v 0.67797 0.67797 H 0.36154119 l -0.002436,0.83442 H 1.9206483 l 0.028779,1.69462 1.7233917,1.72399 1.695219,0.0288 v 1.56155 l 0.8344205,-0.003 V 295.0979 H 6.880427 7.558394 v 1.56455 h 0.9387243 v -1.56455 h 0.677967 0.6779682 v 1.56455 h 0.9387245 v -1.56455 h 0.677967 0.677968 v 1.56455 l 0.834421,0.005 v -1.55914 l 0.650993,-0.0312 0.650993,-0.0312 1.070001,-1.27802 c 0.965085,-1.15306 1.070001,-1.31947 1.070001,-1.69521 v -0.41662 h 1.563942 v -0.83441 h -1.564545 v -0.70374 -0.70435 l 1.564542,0.0318 6.14e-4,-0.91835 h -1.564541 v -0.67796 -0.67797 h 1.564541 l -6.14e-4,-0.91774 -1.564542,0.0312 v -0.70374 -0.70434 h 1.564542 l 0.003,-0.83443 h -1.562142 l -0.02878,-1.69461 -1.723392,-1.7234 -1.694619,-0.0288 z"
       inkscape:connector-curvature="0" />
  </g>
</svg>
